<svg width="52" height="58" viewBox="0 0 52 58" fill="none" xmlns="http://www.w3.org/2000/svg">
<path d="M42.056 27.6196C45.2694 26.3566 48.409 24.9265 51.5 23.4031C47.5315 24.2066 43.5834 25.1595 39.7044 26.31C33.8443 28.1258 28.1365 30.3771 22.4993 32.7601L21.9373 33.0028C23.1539 32.4371 24.3784 31.8779 25.6123 31.3541C30.0831 29.4628 35.4047 27.4461 40.177 25.5917C41.4689 25.1097 42.764 24.6437 44.0795 24.2355C45.395 23.8274 46.7811 23.4513 48.0841 22.9275C46.3808 23.2971 44.6525 23.5413 42.9492 23.9109C40.9336 24.3351 38.9399 24.8574 36.9588 25.4166C33.0955 26.5414 29.3421 28.0149 25.6123 29.5013C21.5308 31.1966 17.4712 32.969 13.5938 35.0789C11.2171 36.3837 8.94558 37.862 6.71645 39.3918C5.75572 40.0442 4.81541 40.7255 3.89079 41.4165C4.08388 41.3233 4.27853 41.2333 4.47319 41.1433C6.18114 40.3608 7.89381 39.5878 9.5892 38.7828C9.68182 38.7378 9.77601 38.696 9.86863 38.6526C7.1574 40.2048 4.59833 42.0204 2.22679 44.0743C1.63654 44.5885 1.06095 45.1188 0.5 45.6651C1.59887 45.0465 2.72756 44.4535 3.85468 43.8734C7.62223 41.9259 11.495 40.1663 15.3143 38.2975C16.2421 37.8717 17.1557 37.4603 18.0646 37.0554C14.1668 38.9322 10.3129 40.8943 6.57674 43.0475C9.58449 41.7877 12.6519 40.6596 15.6487 39.3741C20.5999 37.2418 25.4851 35.0612 29.1883 33.6118C30.8209 32.9787 33.2604 31.9663 33.8647 31.7301C38.0938 30.2389 42.3417 28.7509 46.3683 26.7985C47.081 26.4595 47.7811 26.0931 48.486 25.7396C47.9915 25.9003 47.4954 26.0497 46.9994 26.1975C45.3479 26.6571 43.7001 27.1311 42.056 27.6196Z" fill="white"/>
<path d="M39.7907 42.3983C41.2992 45.3791 43.1014 48.2041 44.902 51.0242C45.2159 51.5641 45.5299 52.112 45.8438 52.6616C45.5738 51.9578 45.3007 51.2539 45.0589 50.5405C43.059 43.9008 40.2569 38.5546 37.9085 32.5577C36.1597 28.2608 34.637 23.8804 32.9274 19.5707L32.8568 19.3666C31.8725 16.5883 30.7658 13.8517 29.5696 11.1553C28.5445 8.82694 27.3578 6.56763 26.3452 4.23441C26.7 6.77814 27.364 9.26723 28.0422 11.7451L28.1505 12.2143C28.0061 11.8158 27.8617 11.4108 27.711 11.0236C27.6042 10.7375 27.4959 10.4579 27.3892 10.1799C27.3892 10.1526 27.4001 10.1269 27.4049 10.1012C27.3954 10.1189 27.3876 10.135 27.3797 10.1526C26.0501 6.70422 24.7613 3.82144 23.3689 0.561035C23.8225 2.68697 24.113 4.84343 24.609 6.96132C24.8319 7.99617 25.0763 9.02512 25.3421 10.0482L25.3249 10.0193C25.2542 9.86821 25.182 9.71877 25.1098 9.56772C24.1915 7.71014 23.383 5.79632 22.3642 3.98695C22.9654 6.52907 23.3469 9.12903 24.171 11.6165C24.3861 12.8554 24.642 14.0879 24.9089 15.3124C24.7519 15.6627 24.5808 16.013 24.4222 16.3649C21.7896 21.981 19.92 27.8864 18.0221 33.7644C16.7662 37.7158 15.4727 41.6608 14.4649 45.6812C13.4869 49.5956 12.8056 53.5743 12.2075 57.5578C13.4963 54.283 14.6674 50.9615 15.8385 47.6432C15.3927 49.8415 14.9563 52.0413 14.4398 54.2315C15.6784 50.9711 16.8165 47.6706 17.9279 44.3668C18.289 43.2307 18.6422 42.093 18.9969 40.9537C18.424 43.5248 17.9263 46.1103 17.3596 48.6781C19.3376 43.2371 21.1036 37.7335 23.1051 32.3086C23.8743 30.1794 24.7283 28.0824 25.5336 25.9661C25.9523 24.8381 26.3588 23.7058 26.7534 22.5692C27.5383 25.2254 28.4613 27.843 29.3373 30.4719C30.5146 33.8544 31.6167 37.2739 33.1252 40.5359C33.9196 42.2692 34.795 43.965 35.7515 45.6234C36.447 46.8012 37.2005 47.9469 37.8739 49.1377C38.1251 49.5662 38.3742 49.9984 38.6211 50.4344C38.4422 49.9534 38.2658 49.4714 38.0921 48.9882C37.4925 47.2833 36.9933 45.5494 36.4407 43.8301C37.5395 46.1376 38.7185 48.4129 39.9115 50.6755C40.0685 50.9808 40.2443 51.2829 40.4107 51.5866C40.0889 50.4618 39.7828 49.3289 39.4688 48.2008C39.3747 47.8795 39.2789 47.55 39.1847 47.2238C40.4154 49.9247 41.8225 52.5375 43.3965 55.0446C43.858 55.7806 44.3572 56.4908 44.8423 57.2139C44.475 56.1823 44.1218 55.1443 43.7591 54.111C42.8173 51.3793 41.9397 48.6042 40.8958 45.8965C38.8692 40.8573 36.6573 35.8888 34.7626 30.7917C34.6511 30.5024 34.5412 30.2148 34.4313 29.9256C34.6092 30.3155 34.7892 30.7161 34.9713 31.1275C36.4674 34.9327 37.9665 38.7378 39.7907 42.3983ZM25.4253 18.4121C25.4646 18.2723 25.5007 18.1325 25.5399 17.9943L25.5713 18.1132C25.5227 18.2128 25.4724 18.3125 25.4253 18.4121ZM25.8617 21.1438C25.9591 20.8755 26.0517 20.6055 26.1474 20.3404L26.1726 20.4384L25.8617 21.1438Z" fill="white"/>
<path d="M20.2294 22.1643C18.5654 25.9485 17.2311 29.8549 15.9281 33.7677C14.8732 36.9702 13.7618 40.1583 12.7618 43.377C11.7289 47.105 10.7807 50.8667 10.1716 54.6831C10.1088 55.1106 10.0539 55.5396 9.99268 55.9686C10.0649 55.7919 10.1387 55.6151 10.2124 55.44C11.5279 52.3981 12.9094 49.2164 14.0428 45.9593C14.812 43.859 15.352 41.6929 15.9266 39.5316C16.6565 36.9365 17.3833 34.3381 18.1839 31.7607C19.4398 27.9877 20.7223 24.2291 22.0049 20.4674C22.8133 18.0972 23.785 15.7768 24.4208 13.3552C23.1461 16.3441 21.468 19.1561 20.2294 22.1643Z" fill="white"/>
<path d="M7.1028 23.3276C7.08125 23.3712 7.06289 23.4163 7.04785 23.4626L7.1028 23.3276Z" fill="white"/>
<path d="M21.5906 12.0922C22.0429 11.8109 22.5151 11.5648 23.0035 11.3562C22.7523 11.3562 22.4996 11.3739 22.2484 11.4028C20.418 11.6117 18.6865 12.293 17.0288 13.0451C15.032 14.0188 14.4511 14.4141 13.1042 15.4554C11.7701 16.4995 10.5729 17.7152 9.54234 19.0725C8.09026 21.0008 7.90817 21.3865 7.10285 23.3276L7.14367 23.2424C6.5453 24.6708 6.10713 26.1641 5.83759 27.6936C5.27246 30.4157 5.04483 34.7141 6.47964 37.9601C5.5456 35.0243 6.24888 31.2641 7.35559 28.3701C7.35912 28.3601 7.36332 28.3505 7.36815 28.3411C7.42153 28.2222 7.63345 27.7562 7.6931 27.6389C7.98823 27.0235 8.32103 26.4257 8.67109 25.8408C8.87517 25.505 9.08866 25.1756 9.30687 24.8493C8.38626 26.6258 7.75024 28.5421 7.42309 30.5249C7.15623 32.2588 7.0118 34.0681 7.47333 35.7811C7.15937 34.0906 7.47333 32.5078 7.85793 30.8801C8.55336 28.1483 9.50466 26.2538 11.0666 23.7711C12.2346 21.9151 13.2283 20.6859 14.6081 19.0806C16.1005 17.3164 17.7765 15.7242 19.6064 14.3322C18.5459 14.9066 17.5228 15.5507 16.5437 16.2605C18.2846 14.5636 20.148 12.9567 21.5906 12.0922Z" fill="white"/>
<path d="M16.4522 17.456C15.256 18.1486 13.3943 19.6831 12.8527 20.3339C11.4436 22.0007 10.3659 23.933 9.68008 26.0224C8.75232 28.963 8.23429 32.0965 8.67383 35.164C8.64558 33.623 8.85593 32.2716 9.1903 30.774C9.47552 29.4988 9.87706 28.2539 10.3896 27.0556C10.8292 25.9886 12.0364 23.7663 12.9578 22.4342C13.5528 21.6179 13.9139 21.237 14.3613 20.6666C15.7239 19.0115 17.3329 17.5765 19.0471 16.2717C19.1821 16.1672 19.3187 16.0612 19.4553 15.9503C18.4117 16.3578 17.4065 16.8618 16.4522 17.456Z" fill="white"/>
<path d="M46.128 18.0971C45.8423 16.9996 45.106 15.6771 44.1076 14.4109C43.1542 13.0547 41.9359 11.916 40.53 11.0669C39.3574 10.3278 38.0466 9.84409 36.7201 9.43754C34.436 8.72086 31.9918 8.28539 29.5947 8.62445C31.2258 8.58267 33.7641 9.40862 34.8112 9.85373C35.4077 10.0883 35.9368 10.3262 36.4265 10.572C35.6462 10.2947 34.8428 10.0909 34.0263 9.963C33.1798 9.82104 32.3215 9.7672 31.4644 9.80231C31.9638 9.83406 32.4577 9.9274 32.9353 10.0803C33.2697 10.1831 33.6386 10.3262 33.8191 10.4017C33.8473 10.4145 33.8002 10.384 33.7877 10.3728C34.1409 10.5592 34.6793 10.7359 35.166 11.0236C35.8284 11.3755 36.4422 11.8045 37.0843 12.1918C38.1589 12.8754 39.1931 13.6233 40.1815 14.4318C41.1901 15.2723 42.1256 16.2009 42.9774 17.2069C43.7623 18.1261 44.2458 18.6981 44.9553 19.921C45.0213 20.0383 45.0825 20.1572 45.1437 20.2777C45.1264 20.2038 45.1107 20.1315 45.095 20.0575C44.9121 19.2051 44.6225 18.3803 44.2332 17.6038L44.2238 17.5877C44.5126 17.9863 44.7952 18.3912 45.0652 18.801C45.4938 19.5803 45.7496 20.0865 46.0715 20.7967C46.1107 20.8722 46.1672 21.0297 46.2284 21.192C46.252 21.2274 46.2912 21.4572 46.3085 21.2643C46.4271 20.813 46.48 20.3463 46.4655 19.8792C46.4655 19.3473 46.3258 18.7897 46.128 18.0971Z" fill="white"/>
<path d="M37.1847 13.5143C36.9791 13.4468 36.7734 13.3777 36.5693 13.3054C36.8252 13.4356 37.0717 13.5834 37.3213 13.7264C39.5959 15.0827 41.7246 16.4485 43.3415 18.5359C41.9602 16.1459 39.769 14.3588 37.1847 13.5143Z" fill="white"/>
<path d="M43.8266 12.7735C42.4205 11.1446 40.6227 9.92032 38.6117 9.22221C37.7514 8.92493 36.7656 8.69836 35.9336 8.48303C36.8174 8.75138 37.6949 9.04545 38.5567 9.37808C40.4923 10.0819 42.1108 11.4751 43.4624 13.082C45.0322 14.7532 46.1311 16.8871 47.3257 18.9391C46.3728 16.8164 45.2394 14.5411 43.8266 12.7735Z" fill="white"/>
<path d="M48.5364 30.2261C48.4972 30.0091 48.4422 29.797 48.3998 29.5833C48.392 29.6412 48.3841 29.7006 48.3747 29.7585C48.2116 30.6871 47.9861 31.603 47.6997 32.4998C47.3261 33.758 47.0922 34.6081 46.8395 35.3585C46.9532 34.7601 47.0282 34.1545 47.0639 33.5459C47.1904 32.3361 47.173 31.1151 47.0121 29.9095C46.8991 29.1816 46.7453 28.4344 46.3638 27.7916C46.5569 28.7975 46.356 29.8372 46.2476 30.8447C46.1528 31.5716 46.0053 32.2902 45.8065 32.9948C45.6024 33.7372 45.2979 34.4506 45.0389 35.1785C44.4015 36.6858 44.2226 37.2547 43.6512 38.9692C43.4754 39.4802 43.276 39.9832 43.0829 40.4878C43.0578 40.5536 43.0327 40.6195 43.006 40.6838C43.1206 40.6179 43.2352 40.5536 43.3482 40.4829C43.9865 40.0614 44.5722 39.5617 45.0923 38.9949C44.4643 40.0635 43.8364 41.0936 42.9385 41.9324C45.0043 40.6693 46.7939 38.8953 47.6966 36.6601C48.6181 34.5711 49.0372 32.4757 48.5364 30.2261Z" fill="white"/>
<path d="M45.221 30.7402C45.2131 30.6615 45.2037 30.5795 45.1943 30.5056C45.1582 30.8415 45.1189 31.1146 45.0656 31.4489C44.8387 32.7613 44.5298 34.0575 44.1409 35.3295C43.9448 36.1181 43.6897 36.8901 43.378 37.6386C43.0641 38.3152 42.7815 39.0222 42.3105 39.6103C44.6511 37.1534 45.5899 34.0488 45.221 30.7402Z" fill="white"/>
<path d="M43.9005 32.6798C43.6588 33.2728 43.3322 33.8287 43.0889 34.4201C42.8644 34.952 42.7059 35.5063 42.4893 36.0382C43.6698 35.2171 44.2003 34.0778 43.9005 32.6798Z" fill="white"/>
<path d="M48.9287 34.6273C48.7344 35.2954 48.5043 35.952 48.2396 36.5942C47.6006 37.9826 46.7074 39.2424 45.9932 40.5922C46.6211 39.7791 47.293 38.9853 47.7718 38.0629C48.3559 36.9954 48.7573 35.8334 48.9585 34.6273C48.9821 34.5149 49.0025 34.404 49.0229 34.2915C48.9936 34.4083 48.9622 34.5202 48.9287 34.6273Z" fill="white"/>
<path d="M32.8963 47.9276C31.8634 48.3727 30.0141 48.8757 28.6076 49.0991H28.5888C28.8007 49.0364 29.0142 48.9721 29.2167 48.903C30.5306 48.4788 31.8414 47.9742 32.9481 47.1467C33.1742 46.986 33.3955 46.8044 33.609 46.6228C33.0156 46.8639 32.4097 47.0808 31.799 47.2817C29.6004 47.9393 27.3588 48.4361 25.0912 48.768C23.9076 48.9689 23.0615 49.165 21.9846 49.1971C20.6282 49.2517 19.2452 49.3578 17.9031 49.0926C19.4729 49.6068 21.1227 49.7081 22.7695 49.7579C20.8857 49.8977 18.8685 49.9427 17.2218 49.7065C16.9902 49.6687 16.7607 49.6188 16.5342 49.557C17.1778 49.8784 17.8089 50.2255 18.465 50.5212C19.8088 51.1045 21.2797 51.3423 22.7412 51.4307C25.7348 51.6235 28.7379 50.8859 31.3752 49.5329C32.2669 49.0822 33.1138 48.544 33.9041 47.926C34.4504 47.4825 35.0124 47.0069 35.3311 46.3754C34.722 47.1306 33.7942 47.5307 32.8963 47.9276Z" fill="white"/>
<path d="M28.6293 47.3765C27.2164 47.7076 25.7911 47.9614 24.3625 48.2105C23.0015 48.4242 21.5902 48.6524 20.0581 48.5624C21.1742 48.7303 22.3044 48.7771 23.4301 48.7022C25.4281 48.6724 27.3948 48.1888 29.1881 47.2865L29.5021 47.1259C29.2167 47.2285 28.9252 47.3122 28.6293 47.3765Z" fill="white"/>
<path d="M26.6733 46.6614C26.6305 46.6727 26.5869 46.6807 26.543 46.6855L26.6733 46.6614Z" fill="white"/>
<path d="M33.6231 49.4108C32.5901 49.8511 31.6608 50.2721 30.8147 50.6127C28.0942 51.6845 25.2528 52.2277 22.3377 51.94C20.7946 51.8211 19.2718 51.4258 17.7256 51.1366C19.3739 51.5865 21.0504 51.9882 22.76 52.1425C24.0682 52.2369 25.3822 52.2046 26.6845 52.0461C27.7124 51.9306 28.7287 51.7247 29.7221 51.4306C30.6382 51.2202 31.5201 50.876 32.3405 50.4087C32.9289 50.0717 33.4868 49.6819 34.0077 49.2437C33.8884 49.2935 33.7581 49.3465 33.6231 49.4108Z" fill="white"/>
<path d="M9.77902 43.9184V43.9281L9.81669 43.9779L9.77588 43.9249L9.77902 43.9184Z" fill="white"/>
<path d="M10.5736 44.9967C10.3376 44.6384 10.0834 44.293 9.81228 43.9618L9.77303 43.912L9.69768 43.8172L9.6867 43.8028L9.70396 43.8253L9.6914 43.8092C9.42454 43.4653 9.14825 43.1439 8.86255 42.8226L8.7244 42.6619C8.67188 43.1258 8.70166 43.5956 8.81231 44.0486C8.97753 44.6921 9.33625 45.2661 9.83771 45.6895C10.3392 46.1128 10.958 46.364 11.6066 46.4076C11.1874 46.0155 10.9221 45.4691 10.5736 44.9967Z" fill="white"/>
<path d="M9.82324 43.9763C9.83894 43.994 9.84522 44.0036 9.82324 43.9763V43.9763Z" fill="white"/>
<path d="M9.69136 43.8092C9.61287 43.7096 9.64427 43.7514 9.69136 43.8092V43.8092Z" fill="white"/>
<path d="M10.6361 43.7675C10.2594 43.3127 9.79944 42.9335 9.396 42.5012C9.45077 43.1528 9.69206 43.7734 10.0897 44.2853C10.4873 44.7972 11.0236 45.1777 11.6314 45.3792C11.3666 44.8016 11.0322 44.2602 10.6361 43.7675Z" fill="white"/>
<path d="M11.0991 43.2388C11.1035 43.2464 11.1087 43.2534 11.1148 43.2597C11.1494 43.3047 11.1446 43.3047 11.0991 43.2388Z" fill="white"/>
<path d="M11.1151 43.2596L11.0899 43.2274C10.8152 42.8803 10.4447 42.62 10.1685 42.2745C10.1685 43.4733 10.8388 44.0148 11.8199 44.3474C11.5122 43.9682 11.4274 43.6259 11.1151 43.2596Z" fill="white"/>
<path d="M11.0083 42.4385C11.0804 42.6661 11.2304 42.8596 11.4306 42.9832C11.3289 42.7732 11.185 42.5875 11.0083 42.4385Z" fill="white"/>
<path d="M8.08691 43.7047C8.40873 44.9661 9.07118 46.25 10.3302 46.8317C9.24072 46.0492 8.67873 44.881 8.08691 43.7047Z" fill="white"/>
<path d="M37.0483 14.6921C37.7862 15.0778 38.2681 15.7688 38.9227 16.2621C39.7845 17.0366 40.5694 17.5315 41.2931 18.3816C40.4972 16.3087 39.5129 15.0794 37.0483 14.6921Z" fill="white"/>
<path d="M37.9209 16.855C38.1169 17.1076 38.3474 17.33 38.6053 17.5154C38.4541 17.2244 38.2136 16.9923 37.9209 16.855Z" fill="white"/>
<path d="M42.2163 34.6514C42.2881 34.5793 42.3448 34.4929 42.3828 34.3976C42.4209 34.3023 42.4395 34.2 42.4377 34.097C42.303 34.2498 42.2247 34.4459 42.2163 34.6514Z" fill="white"/>
<path d="M24.4382 46.4012C23.7758 46.4687 23.1525 46.7017 22.5215 46.8929C23.7695 47.5356 25.3597 47.4055 26.2969 46.3192C25.6847 46.406 25.0552 46.3128 24.4382 46.4012Z" fill="white"/>
<path d="M23.606 45.0352C23.7637 45.1291 23.9433 45.1775 24.1257 45.1753C24.3082 45.173 24.4866 45.1202 24.642 45.0224C24.3024 44.9268 23.9433 44.9313 23.606 45.0352Z" fill="white"/>
<path d="M12.4305 24.8847C11.8654 25.791 11.8246 26.9126 12.1009 27.9185C12.1423 27.66 12.2123 27.4072 12.3096 27.1649C12.7131 26.4209 13.1479 25.6881 13.3771 24.8686C13.5341 24.3624 13.6911 23.8482 13.8135 23.3308C13.2637 23.758 12.7949 24.2846 12.4305 24.8847Z" fill="white"/>
<path d="M14.3221 25.3074C14.0997 25.5249 13.9418 25.8023 13.8666 26.1076C13.7913 26.4129 13.8017 26.7337 13.8967 27.0332C14.2113 26.5176 14.3601 25.914 14.3221 25.3074Z" fill="white"/>
</svg>
